<svg width="512" height="512" viewBox="0 0 512 512" fill="none" xmlns="http://www.w3.org/2000/svg">
  <defs>
    <linearGradient id="pathRed" x1="176" y1="322" x2="328" y2="164" gradientUnits="userSpaceOnUse">
      <stop stop-color="#FF3B30"/>
      <stop offset="1" stop-color="#C40018"/>
    </linearGradient>
    <radialGradient id="redGlow" cx="0" cy="0" r="1" gradientUnits="userSpaceOnUse" gradientTransform="translate(256 212) rotate(90) scale(188 188)">
      <stop stop-color="#FF3B30" stop-opacity="0.2"/>
      <stop offset="1" stop-color="#FF3B30" stop-opacity="0"/>
    </radialGradient>
  </defs>

  <rect x="28" y="28" width="456" height="456" rx="108" fill="#050505"/>
  <rect x="28" y="28" width="456" height="456" rx="108" stroke="#FF3B30" stroke-width="8"/>
  <rect x="28" y="28" width="456" height="456" rx="108" fill="url(#redGlow)"/>

  <path d="M134 312C162 250 205 218 256 218C307 218 350 250 378 312" stroke="#FAFAFA" stroke-width="18" stroke-linecap="round"/>
  <path d="M170 334C192 287 220 266 256 266C292 266 320 287 342 334" stroke="#FFFFFF" stroke-opacity="0.22" stroke-width="10" stroke-linecap="round"/>

  <path d="M184 316L224 278L254 302L298 214L332 182" stroke="url(#pathRed)" stroke-width="18" stroke-linecap="round" stroke-linejoin="round"/>

  <circle cx="184" cy="316" r="10" fill="#FFFFFF"/>
  <circle cx="224" cy="278" r="10" fill="#FFFFFF"/>
  <circle cx="254" cy="302" r="10" fill="#FFFFFF"/>
  <circle cx="298" cy="214" r="11" fill="#FF3B30"/>
  <circle cx="332" cy="182" r="11" fill="#FF3B30"/>

  <path d="M256 118L261 132L275 137L261 142L256 156L251 142L237 137L251 132L256 118Z" fill="#FFFFFF"/>
</svg>
